<?xml version="1.0" encoding="utf-8"?>
<!-- Svg Vector Icons : http://www.onlinewebfonts.com/icon -->
<!DOCTYPE svg PUBLIC "-//W3C//DTD SVG 1.1//EN" "http://www.w3.org/Graphics/SVG/1.1/DTD/svg11.dtd">
<svg version="1.1" xmlns="http://www.w3.org/2000/svg" xmlns:xlink="http://www.w3.org/1999/xlink" x="0px" y="0px" viewBox="0 0 1000 1000" enable-background="new 0 0 1000 1000" xml:space="preserve">
<metadata> Svg Vector Icons : http://www.onlinewebfonts.com/icon </metadata>
<g><g transform="translate(0.000000,511.000000) scale(0.100000,-0.100000)"><path d="M4699,4958.8c-322.1-132.2-499.1-362.6-558.8-720.9l-12.8-81h-488.4h-490.5v-618.5v-618.5H5004h1855.5v618.5v618.5H6369h-488.4l-12.8,81c-42.7,260.2-174.9,490.5-345.5,607.8C5355.9,4961,5202.4,5010,5004,5010C4861.1,5010,4797.1,4997.2,4699,4958.8z M5174.6,4476.8c98.1-51.2,168.5-142.9,185.6-245.3l12.8-74.6h-369h-369l12.8,74.6C4684.1,4459.8,4957.1,4587.7,5174.6,4476.8z"/><path d="M1610.8,3903.1c-230.3-72.5-392.4-221.8-505.5-464.9l-57.6-123.7l-6.4-3698.2c-4.3-3333.5-2.1-3711,29.9-3817.6c66.1-234.6,232.5-428.7,454.3-533.2l119.4-55.4H5004h3359.1l142.9,70.4c174.9,85.3,334.8,253.8,405.2,426.5l49,121.6v3743v3743l-66.1,138.6c-78.9,168.5-168.5,273-302.9,358.3c-185.6,117.3-277.3,132.2-861.6,132.2h-528.9v-243.1v-245.3l528.9-6.4l531.1-6.4l74.6-57.6c157.8-119.4,147.1,172.8,140.7-3860.3l-6.4-3619.3l-44.8-59.7c-23.5-32-76.8-81-115.2-106.6l-70.4-49H5004H1768.6l-70.4,49c-38.4,25.6-91.7,74.7-115.2,106.6l-44.8,59.7l-6.4,3619.3c-6.4,4033-17.1,3740.9,140.8,3860.3l74.6,57.6l531.1,6.4l528.9,6.4v243.1v245.3l-537.5-2.1C1811.3,3941.5,1711.1,3935.1,1610.8,3903.1z"/><path d="M2018.2,1416.3V467.2h959.7h959.7v522.5c0,287.9-6.4,522.5-12.8,522.5c-6.4,0-78.9-59.7-160-132.2l-147.2-132.2v-241v-241h-650.5h-650.5l4.3,646.2l6.4,644.1l644.1,6.4l644.1,4.3l6.4-66.1l6.4-68.2l155.7,145c132.2,123.7,153.6,151.4,153.6,215.4v72.5h-959.7h-959.7V1416.3z"/><path d="M3756.4,1977.2c-221.8-198.3-460.7-409.5-526.8-467.1l-119.4-106.6l-106.6,113c-57.6,61.8-132.2,145-168.5,185.5l-64,72.5l-151.4-125.8L2466,1525.1l70.4-76.8c38.4-40.5,170.6-185.6,292.2-319.9C2950.2,994,3061.1,881,3073.9,876.7c21.3-6.4,1337.2,1149.6,1350,1185.8c2.1,8.5-55.4,74.7-128,147.2l-134.4,130.1L3756.4,1977.2z"/><path d="M4854.7,1682.9c-87.4-6.4-162.1-25.6-200.5-53.3c-64-42.7-119.4-147.2-119.4-228.2c0-83.2,81-187.7,177-230.3c85.3-40.5,155.7-42.7,1550.5-42.7c1382,0,1465.2,2.1,1548.4,40.5c213.3,98.1,232.5,351.9,36.3,473.5c-76.8,46.9-76.8,46.9-1465.2,49C5618.3,1693.6,4931.5,1689.3,4854.7,1682.9z"/><path d="M2018.2-748.4v-959.7l955.5,4.3l953.3,6.4v949.1v949.1l-953.3,6.4l-955.5,4.3V-748.4z M3617.7-748.4v-639.8h-650.5h-650.5v639.8v639.8h650.5h650.5V-748.4z"/><path d="M4705.4-509.6c-219.7-108.8-217.5-371.1,4.3-486.3c46.9-25.6,311.4-29.9,1559-29.9h1501.5l70.4,49.1c153.6,102.4,185.5,255.9,81,388.2c-93.8,119.4-61.8,117.3-1663.5,117.3C4893.1-471.2,4773.7-473.3,4705.4-509.6z"/><path d="M2018.2-2913.2v-949.1h959.7h959.7v522.5c0,287.9-6.4,522.5-12.8,522.5c-6.4,0-78.9-59.7-160-132.2l-147.2-132.2v-241v-241l-644.1,4.3l-646.2,6.4v639.8v639.8l644.1,6.4l644.1,4.3l6.4-64l6.4-66.1l155.7,140.8c132.2,123.7,153.6,151.4,153.6,215.4v72.5h-959.7h-959.7V-2913.2z"/><path d="M3756.4-2352.3c-221.8-198.3-460.7-409.5-526.8-467.1L3110.1-2926l-106.6,113c-57.6,61.8-132.2,145-168.5,185.6l-64,74.6l-151.4-125.8l-151.4-123.7l100.2-110.9c411.6-460.7,486.3-539.6,507.6-541.7C3099.5-3457,4413.2-2299,4423.9-2267c2.1,8.5-55.4,74.6-128,147.2l-134.4,130.1L3756.4-2352.3z"/><path d="M4775.8-2646.6c-104.5-23.5-177-81-213.3-164.2c-64-153.6,25.6-319.9,198.4-366.8c115.2-32,2887.7-32,3002.9,0c249.5,68.2,294.3,360.4,78.9,492.7l-76.8,49.1l-1460.9,4.3C5500.9-2629.5,4812.1-2635.9,4775.8-2646.6z"/></g></g>
</svg>