<?xml version="1.0" standalone="no"?>
<!DOCTYPE svg PUBLIC "-//W3C//DTD SVG 20010904//EN"
 "http://www.w3.org/TR/2001/REC-SVG-20010904/DTD/svg10.dtd">
<svg version="1.0" xmlns="http://www.w3.org/2000/svg"
 width="203.000000pt" height="249.000000pt" viewBox="0 0 203.000000 249.000000"
 preserveAspectRatio="xMidYMid meet">

<g transform="translate(0.000000,249.000000) scale(0.100000,-0.100000)"
fill="#000000" stroke="none">
<path d="M830 2454 c-261 -51 -450 -190 -556 -410 -93 -193 -86 -437 17 -635
37 -71 167 -229 188 -229 4 0 20 37 35 82 22 68 24 83 13 90 -26 14 -106 142
-128 203 -27 74 -36 227 -20 306 59 283 349 480 635 430 368 -64 569 -469 400
-803 -13 -26 -26 -48 -29 -48 -3 0 -17 24 -32 53 l-28 52 -8 -148 c-5 -82 -6
-151 -3 -154 3 -3 73 3 156 13 l152 18 -56 28 c-31 16 -56 31 -56 33 0 3 11
22 25 43 40 60 74 155 91 252 33 193 -22 398 -151 562 -84 107 -239 206 -380
244 -61 16 -219 27 -265 18z"/>
<path d="M900 2185 c0 -58 2 -65 20 -65 18 0 20 7 20 65 0 58 -2 65 -20 65
-18 0 -20 -7 -20 -65z"/>
<path d="M668 2178 c-15 -12 -14 -17 14 -65 28 -50 50 -65 63 -43 6 9 -21 69
-47 103 -11 15 -16 16 -30 5z"/>
<path d="M1120 2134 c-25 -45 -29 -59 -18 -65 21 -13 29 -7 60 48 28 50 29 52
9 62 -17 10 -23 4 -51 -45z"/>
<path d="M483 1994 c-7 -18 -2 -22 59 -58 46 -26 47 -26 58 -6 9 17 4 23 -42
50 -61 34 -67 36 -75 14z"/>
<path d="M1283 1979 c-47 -27 -51 -32 -41 -49 12 -18 15 -18 69 12 49 27 56
35 48 50 -13 23 -15 23 -76 -13z"/>
<path d="M885 1931 c-99 -24 -151 -130 -111 -225 8 -18 31 -46 52 -62 31 -24
47 -29 95 -29 65 0 98 18 137 75 31 46 31 124 -1 170 -38 57 -109 86 -172 71z"/>
<path d="M420 1745 c0 -24 2 -25 65 -25 63 0 65 1 65 25 0 24 -2 25 -65 25
-63 0 -65 -1 -65 -25z"/>
<path d="M1297 1764 c-4 -4 -7 -16 -7 -26 0 -16 9 -18 71 -18 67 0 70 1 67 23
-3 20 -9 22 -63 25 -34 2 -64 0 -68 -4z"/>
<path d="M528 1542 c-48 -27 -60 -48 -34 -58 11 -4 84 29 115 53 5 3 -20 33
-28 33 -3 0 -27 -13 -53 -28z"/>
<path d="M837 1526 c-121 -44 -222 -178 -262 -348 l-14 -60 57 -25 c98 -44
188 -63 301 -63 117 0 202 17 299 61 63 28 64 29 57 61 -59 274 -253 440 -438
374z"/>
<path d="M1153 781 c-79 -37 -96 -132 -32 -185 16 -14 55 -33 87 -42 31 -10
64 -24 72 -31 13 -13 13 -16 -5 -29 -26 -19 -64 -10 -90 21 -17 20 -30 25 -68
25 l-47 0 0 -70 0 -70 50 0 c43 0 50 3 50 20 0 19 1 19 37 -2 80 -48 196 -19
220 56 24 72 -18 123 -134 160 -57 19 -78 38 -69 61 13 34 106 3 106 -35 0 -5
23 -10 50 -10 l51 0 -3 68 -3 67 -47 3 c-43 3 -48 1 -48 -17 0 -12 -4 -21 -10
-21 -5 0 -10 4 -10 8 0 12 -40 29 -82 37 -22 3 -47 -1 -75 -14z"/>
<path d="M64 776 c-3 -7 -4 -40 -2 -72 l3 -59 37 -3 c36 -3 37 -2 40 35 2 31
7 39 26 41 22 3 22 2 22 -122 0 -119 -1 -126 -20 -126 -16 0 -20 -7 -20 -35
l0 -35 100 0 100 0 0 35 c0 28 -4 35 -20 35 -19 0 -20 7 -20 126 0 124 0 125
23 122 18 -2 23 -10 25 -40 3 -36 5 -38 38 -38 l34 0 0 75 0 75 -180 0 c-143
0 -182 -3 -186 -14z"/>
<path d="M620 755 c0 -19 5 -35 10 -35 15 0 13 -13 -26 -136 -29 -94 -39 -114
-55 -114 -15 0 -19 -7 -19 -35 l0 -35 90 0 90 0 0 35 c0 28 -4 35 -20 35 -13
0 -20 7 -20 20 0 19 5 21 62 18 50 -2 63 -6 66 -20 3 -13 -3 -18 -22 -18 -23
0 -26 -4 -26 -35 l0 -35 110 0 110 0 0 35 c0 28 -4 35 -19 35 -16 0 -26 21
-56 118 -20 64 -42 135 -49 157 l-13 40 -106 3 -107 3 0 -36z m118 -173 c-39
-4 -42 0 -28 45 21 69 22 70 40 13 l18 -55 -30 -3z"/>
<path d="M1550 756 c0 -21 6 -36 15 -40 12 -4 15 -27 15 -121 0 -94 -3 -117
-15 -121 -9 -4 -15 -19 -15 -40 l0 -34 85 0 85 0 0 35 c0 24 -5 35 -15 35 -19
0 -21 60 -3 78 20 20 32 14 60 -31 26 -40 26 -42 8 -45 -15 -3 -20 -11 -20
-38 l0 -34 110 0 110 0 0 35 c0 27 -4 35 -17 35 -12 0 -39 33 -74 89 l-57 89
44 36 c23 20 50 36 59 36 12 0 16 8 13 33 l-3 32 -92 3 -93 3 0 -35 c0 -28 4
-35 22 -38 19 -3 16 -8 -30 -46 l-52 -44 0 46 c0 34 4 46 15 46 10 0 15 11 15
35 l0 35 -85 0 -85 0 0 -34z"/>
<path d="M300 110 c0 -33 4 -60 10 -60 6 0 10 19 10 42 0 39 1 40 18 25 23
-21 38 -22 46 -2 11 29 26 15 26 -25 0 -22 5 -40 10 -40 6 0 10 27 10 60 0 69
-15 79 -44 28 l-19 -31 -26 32 c-14 17 -29 31 -33 31 -5 0 -8 -27 -8 -60z"/>
<path d="M496 162 c-16 -26 -44 -112 -37 -112 5 0 11 7 15 15 8 21 63 19 75
-2 5 -10 12 -15 15 -12 9 8 -41 119 -53 119 -6 0 -12 -4 -15 -8z m28 -38 c9
-23 8 -24 -14 -24 -22 0 -23 1 -14 24 8 20 20 20 28 0z"/>
<path d="M602 108 c1 -50 2 -54 5 -20 2 23 8 42 12 42 5 0 21 -18 36 -40 15
-22 32 -40 36 -40 5 0 9 27 9 60 0 68 -17 82 -22 18 l-3 -43 -30 42 c-16 24
-33 43 -37 43 -5 0 -7 -28 -6 -62z"/>
<path d="M747 113 c-25 -58 -26 -83 -3 -50 17 22 76 24 76 2 0 -8 5 -15 11
-15 6 0 8 8 5 18 -25 68 -43 102 -52 102 -6 0 -23 -26 -37 -57z m53 1 c0 -8
-9 -14 -20 -14 -18 0 -19 3 -10 20 12 22 30 18 30 -6z"/>
<path d="M886 154 c-44 -43 6 -122 59 -94 32 17 35 60 5 60 -22 0 -27 -16 -8
-22 17 -6 0 -28 -23 -28 -11 0 -24 11 -31 25 -14 32 4 55 44 55 17 0 27 4 23
10 -9 15 -52 12 -69 -6z"/>
<path d="M990 110 l0 -60 35 0 c19 0 35 5 35 10 0 6 -11 10 -25 10 -33 0 -35
37 -2 43 l22 4 -22 2 c-35 2 -31 39 5 44 22 3 20 4 -10 6 l-38 1 0 -60z"/>
<path d="M1090 110 c0 -33 4 -60 10 -60 6 0 10 19 10 42 0 39 1 40 18 25 23
-21 38 -22 46 -2 11 28 25 15 29 -27 3 -34 4 -30 5 20 1 34 -2 62 -7 62 -5 0
-18 -14 -29 -31 l-20 -31 -23 31 c-12 17 -26 31 -31 31 -4 0 -8 -27 -8 -60z"/>
<path d="M1240 110 l0 -60 35 0 c19 0 35 5 35 10 0 6 -11 10 -25 10 -33 0 -35
37 -2 43 l22 4 -22 2 c-35 2 -31 39 5 44 22 3 20 4 -10 6 l-38 1 0 -60z"/>
<path d="M1342 108 c1 -50 2 -54 5 -20 2 23 8 42 12 42 5 0 21 -18 36 -40 15
-22 32 -40 36 -40 5 0 9 27 9 60 0 68 -17 82 -22 18 l-3 -43 -30 42 c-16 24
-33 43 -37 43 -5 0 -7 -28 -6 -62z"/>
<path d="M1473 163 c13 -4 17 -15 17 -59 0 -30 5 -54 10 -54 6 0 10 24 10 54
0 44 4 55 18 59 9 3 -3 5 -28 5 -25 0 -37 -2 -27 -5z"/>
</g>
</svg>
